<svg xmlns="http://www.w3.org/2000/svg" xmlns:xlink="http://www.w3.org/1999/xlink" width="250" zoomAndPan="magnify" viewBox="0 0 187.5 112.499997" height="150" preserveAspectRatio="xMidYMid meet" version="1.0"><defs><clipPath id="6cace98cbd"><path d="M 32.097656 0 L 144.398438 0 L 144.398438 112.003906 L 32.097656 112.003906 Z M 32.097656 0 " clip-rule="nonzero"/></clipPath></defs><g clip-path="url(#6cace98cbd)"><path fill="#ff914d" d="M 99.820312 62.796875 C 100.132812 57.8125 98.539062 52.851562 94.824219 49.148438 C 90.957031 45.445312 85.988281 43.691406 81.152344 44.007812 C 80.679688 41.449219 79.53125 38.867188 77.441406 36.78125 L 77.28125 36.621094 L 117.339844 26.679688 L 107.375 66.65625 C 107.21875 66.5 107.21875 66.5 107.0625 66.34375 C 105.128906 64.390625 102.5625 63.109375 99.820312 62.796875 Z M 111.246094 4.996094 C 117.519531 7.734375 123.144531 11.730469 127.980469 16.398438 C 138.121094 26.679688 144.398438 40.640625 144.398438 56.21875 C 144.398438 71.640625 138.121094 85.601562 127.980469 95.882812 C 117.835938 106.007812 103.6875 112.269531 88.234375 112.269531 C 72.648438 112.246094 58.636719 105.984375 48.515625 95.859375 C 38.371094 85.601562 32.097656 71.617188 32.097656 56.21875 C 32.097656 40.640625 38.371094 26.65625 48.515625 16.398438 C 53.351562 11.75 58.972656 7.734375 65.25 4.996094 C 72.46875 1.628906 80.363281 0.0117188 88.234375 0.0117188 C 96.109375 0.0117188 104.003906 1.628906 111.246094 4.996094 Z M 60.414062 95.390625 C 62.820312 97.164062 65.40625 98.597656 67.972656 99.722656 L 95.972656 71.617188 C 97.59375 70.179688 100.15625 70.179688 101.777344 71.617188 C 103.394531 73.234375 103.394531 75.792969 101.777344 77.410156 L 76.496094 102.617188 C 79.058594 103.269531 81.804688 103.738281 84.546875 103.898438 L 85.019531 103.898438 L 85.175781 104.054688 L 88.84375 104.054688 C 89 104.054688 89.15625 104.054688 89.316406 104.054688 L 91.09375 104.054688 L 91.746094 103.898438 L 92.871094 103.898438 L 93.523438 103.738281 L 94.644531 103.738281 L 95.117188 103.582031 L 95.769531 103.425781 L 96.421875 103.425781 L 96.894531 103.269531 L 97.546875 103.269531 L 98.019531 103.109375 L 99.324219 102.796875 L 99.796875 102.640625 L 100.449219 102.640625 L 100.921875 102.480469 L 101.574219 102.324219 L 102.046875 102.167969 L 102.699219 102.011719 L 103.171875 101.695312 L 103.824219 101.539062 L 104.296875 101.382812 L 104.949219 101.226562 L 105.417969 101.066406 L 106.070312 100.753906 L 106.542969 100.597656 L 107.195312 100.28125 L 108.140625 99.96875 L 108.792969 99.652344 L 109.265625 99.339844 L 109.738281 99.183594 L 110.390625 98.867188 L 110.863281 98.554688 C 111.175781 98.398438 111.515625 98.238281 111.988281 98.082031 L 112.460938 97.769531 L 112.933594 97.453125 L 113.402344 97.140625 C 113.71875 96.984375 114.214844 96.824219 114.527344 96.488281 L 115 96.175781 L 115.472656 95.859375 L 115.945312 95.546875 C 116.101562 95.390625 116.261719 95.230469 116.417969 95.230469 L 116.890625 94.761719 L 117.363281 94.445312 C 117.675781 94.289062 118.015625 93.976562 118.328125 93.636719 L 118.800781 93.324219 L 119.273438 93.007812 L 119.746094 92.539062 L 120.21875 92.222656 L 120.691406 91.753906 L 121.164062 91.28125 L 121.636719 90.96875 L 122.582031 90.023438 C 132.074219 80.550781 136.726562 68.027344 136.726562 55.65625 C 136.726562 43.132812 132.070312 30.605469 122.582031 21.132812 C 112.933594 11.660156 100.539062 6.835938 87.988281 6.835938 C 75.4375 6.835938 63.15625 11.414062 53.667969 20.886719 L 53.195312 21.359375 L 52.878906 21.671875 L 51.933594 22.617188 L 51.621094 23.085938 L 51.148438 23.558594 L 50.832031 24.03125 L 50.359375 24.5 L 50.046875 24.972656 C 49.886719 25.128906 49.730469 25.285156 49.730469 25.445312 C 49.574219 25.601562 49.414062 25.757812 49.257812 25.914062 L 48.941406 26.386719 L 48.628906 26.859375 L 48.3125 27.328125 L 47.839844 27.800781 L 47.527344 28.273438 L 47.210938 28.921875 C 47.210938 29.082031 47.054688 29.238281 46.894531 29.394531 L 46.582031 29.867188 L 46.265625 30.335938 L 45.953125 30.988281 L 45.792969 31.460938 L 45.480469 31.929688 L 45.164062 32.402344 C 45.007812 32.558594 45.007812 32.875 44.847656 33.054688 L 44.691406 33.523438 L 44.378906 33.996094 C 44.21875 34.152344 44.21875 34.46875 44.0625 34.648438 L 43.90625 35.117188 L 43.589844 35.589844 L 43.433594 36.242188 L 43.273438 36.710938 L 42.960938 37.363281 L 42.804688 37.835938 L 42.644531 38.484375 L 42.332031 38.957031 L 42.171875 39.609375 L 42.015625 40.078125 L 41.859375 40.730469 L 41.699219 41.203125 L 41.542969 41.851562 L 41.386719 42.324219 L 41.226562 42.976562 L 41.070312 43.445312 L 40.914062 44.097656 L 40.757812 44.570312 L 40.757812 45.21875 L 40.597656 45.871094 C 40.597656 46.027344 40.441406 46.183594 40.441406 46.34375 L 40.441406 46.992188 L 40.285156 47.464844 L 40.125 48.117188 L 40.125 48.765625 L 39.96875 49.238281 L 39.96875 50.359375 L 39.8125 51.011719 L 39.8125 52.785156 L 39.652344 53.433594 L 39.652344 56.9375 L 39.8125 57.25 L 39.8125 59.453125 C 40.125 62.011719 40.621094 64.75 41.25 67.332031 L 66.667969 41.808594 C 68.285156 40.371094 70.851562 40.371094 72.46875 41.808594 C 74.089844 43.425781 74.089844 45.984375 72.46875 47.597656 L 43.996094 75.949219 C 45.121094 78.507812 46.558594 81.089844 48.335938 83.492188 L 77.304688 54.445312 C 80.679688 51.078125 86.144531 51.078125 89.359375 54.445312 C 92.734375 57.8125 92.734375 63.265625 89.359375 66.476562 Z M 60.886719 112.089844 L 61.042969 112.246094 Z M 60.886719 112.089844 " fill-opacity="1" fill-rule="nonzero"/></g></svg>