<svg xmlns="http://www.w3.org/2000/svg" xmlns:xlink="http://www.w3.org/1999/xlink" width="250" zoomAndPan="magnify" viewBox="0 0 187.5 112.499997" height="150" preserveAspectRatio="xMidYMid meet" version="1.0"><defs><g/><clipPath id="ebb69a2d53"><path d="M 57.234375 2.5625 L 130.605469 2.5625 L 130.605469 75.925781 L 57.234375 75.925781 Z M 57.234375 2.5625 " clip-rule="nonzero"/></clipPath></defs><g fill="#000d47" fill-opacity="1"><g transform="translate(9.649642, 103.908154)"><g><path d="M 6.957031 0.296875 C 10.476562 0.296875 12.640625 -1.378906 12.640625 -4.179688 C 12.640625 -6.53125 11.09375 -7.933594 7.402344 -8.800781 C 5.132812 -9.332031 4.347656 -9.90625 4.347656 -10.816406 C 4.347656 -11.792969 5.21875 -12.386719 6.640625 -12.386719 C 8.1875 -12.386719 9.121094 -11.582031 9.121094 -10.246094 L 12.367188 -10.246094 C 12.367188 -13.234375 10.117188 -15.144531 6.597656 -15.144531 C 3.179688 -15.144531 1.058594 -13.46875 1.058594 -10.753906 C 1.058594 -8.335938 2.695312 -6.894531 6.171875 -6.152344 C 8.273438 -5.707031 9.226562 -5.089844 9.226562 -4.050781 C 9.226562 -3.054688 8.335938 -2.480469 6.9375 -2.480469 C 5.300781 -2.480469 4.242188 -3.308594 4.242188 -4.730469 L 0.933594 -4.730469 C 0.933594 -1.65625 3.222656 0.296875 6.957031 0.296875 Z M 6.957031 0.296875 "/></g></g></g><g fill="#000d47" fill-opacity="1"><g transform="translate(27.485525, 103.908154)"><g><path d="M 5.34375 0 L 8.71875 0 L 8.71875 -11.6875 L 13.425781 -11.6875 L 13.425781 -14.847656 L 0.636719 -14.847656 L 0.636719 -11.6875 L 5.34375 -11.6875 Z M 5.34375 0 "/></g></g></g><g fill="#000d47" fill-opacity="1"><g transform="translate(45.787957, 103.908154)"><g><path d="M 7.847656 0.296875 C 11.707031 0.296875 14.0625 -2.121094 14.0625 -6.109375 L 14.0625 -14.847656 L 10.691406 -14.847656 L 10.691406 -6.339844 C 10.691406 -4.074219 9.734375 -2.90625 7.847656 -2.90625 C 5.960938 -2.90625 5.003906 -4.074219 5.003906 -6.339844 L 5.003906 -14.847656 L 1.632812 -14.847656 L 1.632812 -6.109375 C 1.632812 -2.121094 3.988281 0.296875 7.847656 0.296875 Z M 7.847656 0.296875 "/></g></g></g><g fill="#000d47" fill-opacity="1"><g transform="translate(65.723314, 103.908154)"><g><path d="M 1.78125 0 L 7.65625 0 C 12.34375 0 15.484375 -2.992188 15.484375 -7.421875 C 15.484375 -11.835938 12.34375 -14.847656 7.65625 -14.847656 L 1.78125 -14.847656 Z M 5.152344 -3.097656 L 5.152344 -11.75 L 7.550781 -11.75 C 10.222656 -11.75 12.027344 -10.03125 12.027344 -7.421875 C 12.027344 -4.816406 10.222656 -3.097656 7.59375 -3.097656 Z M 5.152344 -3.097656 "/></g></g></g><g fill="#000d47" fill-opacity="1"><g transform="translate(86.337293, 103.908154)"><g><path d="M 5.664062 0 L 9.035156 0 L 9.035156 -5.238281 L 14.484375 -14.847656 L 10.648438 -14.847656 L 8.824219 -11.410156 L 7.359375 -8.71875 L 5.875 -11.410156 L 4.03125 -14.847656 L 0.191406 -14.847656 L 5.664062 -5.195312 Z M 5.664062 0 "/></g></g></g><g fill="#000d47" fill-opacity="1"><g transform="translate(105.254724, 103.908154)"><g><path d="M 0.890625 0 L 12.21875 0 L 12.21875 -3.054688 L 5.28125 -3.054688 L 12.046875 -12.40625 L 12.046875 -14.847656 L 1.125 -14.847656 L 1.125 -11.792969 L 7.679688 -11.792969 L 0.890625 -2.4375 Z M 0.890625 0 "/></g></g></g><g fill="#000d47" fill-opacity="1"><g transform="translate(122.602851, 103.908154)"><g><path d="M 8.824219 0.296875 C 13.46875 0.296875 16.753906 -2.882812 16.753906 -7.421875 C 16.753906 -11.960938 13.46875 -15.144531 8.824219 -15.144531 C 4.179688 -15.144531 0.910156 -11.960938 0.910156 -7.421875 C 0.910156 -2.882812 4.179688 0.296875 8.824219 0.296875 Z M 4.347656 -7.421875 C 4.347656 -10.097656 6.191406 -11.941406 8.824219 -11.941406 C 11.472656 -11.941406 13.296875 -10.097656 13.296875 -7.421875 C 13.296875 -4.75 11.472656 -2.90625 8.824219 -2.90625 C 6.191406 -2.90625 4.347656 -4.75 4.347656 -7.421875 Z M 4.347656 -7.421875 "/></g></g></g><g fill="#000d47" fill-opacity="1"><g transform="translate(144.510444, 103.908154)"><g><path d="M 1.78125 0 L 5.132812 0 L 5.132812 -9.097656 L 11.6875 0 L 14.550781 0 L 14.550781 -14.847656 L 11.199219 -14.847656 L 11.199219 -5.8125 L 4.644531 -14.847656 L 1.78125 -14.847656 Z M 1.78125 0 "/></g></g></g><g fill="#000d47" fill-opacity="1"><g transform="translate(165.082001, 103.908154)"><g><path d="M 1.78125 0 L 11.769531 0 L 11.769531 -2.863281 L 5.132812 -2.863281 L 5.132812 -6.109375 L 10.964844 -6.109375 L 10.964844 -8.929688 L 5.132812 -8.929688 L 5.132812 -12.003906 L 11.539062 -12.003906 L 11.539062 -14.847656 L 1.78125 -14.847656 Z M 1.78125 0 "/></g></g></g><g clip-path="url(#ebb69a2d53)"><path fill="#ff914d" d="M 101.480469 43.589844 C 101.6875 40.332031 100.644531 37.09375 98.21875 34.671875 C 95.691406 32.253906 92.445312 31.109375 89.285156 31.316406 C 88.976562 29.644531 88.226562 27.957031 86.859375 26.59375 L 86.757812 26.492188 L 112.929688 19.996094 L 106.417969 46.113281 C 106.316406 46.007812 106.316406 46.007812 106.214844 45.90625 C 104.949219 44.628906 103.273438 43.792969 101.480469 43.589844 Z M 108.945312 5.828125 C 113.046875 7.617188 116.71875 10.230469 119.878906 13.277344 C 126.507812 19.996094 130.605469 29.117188 130.605469 39.292969 C 130.605469 49.367188 126.507812 58.488281 119.878906 65.203125 C 113.25 71.816406 104.007812 75.910156 93.914062 75.910156 C 83.730469 75.894531 74.574219 71.804688 67.964844 65.1875 C 61.335938 58.488281 57.234375 49.351562 57.234375 39.292969 C 57.234375 29.117188 61.335938 19.980469 67.964844 13.277344 C 71.121094 10.242188 74.796875 7.617188 78.894531 5.828125 C 83.613281 3.628906 88.769531 2.574219 93.914062 2.574219 C 99.058594 2.574219 104.214844 3.628906 108.945312 5.828125 Z M 75.738281 64.882812 C 77.308594 66.039062 79 66.976562 80.671875 67.710938 L 98.96875 49.351562 C 100.027344 48.414062 101.703125 48.414062 102.757812 49.351562 C 103.816406 50.40625 103.816406 52.078125 102.757812 53.136719 L 86.242188 69.601562 C 87.917969 70.027344 89.710938 70.335938 91.503906 70.4375 L 91.8125 70.4375 L 91.914062 70.542969 L 94.308594 70.542969 C 94.414062 70.542969 94.515625 70.542969 94.617188 70.542969 L 95.78125 70.542969 L 96.207031 70.4375 L 96.941406 70.4375 L 97.367188 70.335938 L 98.101562 70.335938 L 98.410156 70.234375 L 98.835938 70.132812 L 99.261719 70.132812 L 99.570312 70.027344 L 99.996094 70.027344 L 100.304688 69.925781 L 100.730469 69.824219 L 101.15625 69.71875 L 101.464844 69.617188 L 101.894531 69.617188 L 102.203125 69.515625 L 102.628906 69.414062 L 102.9375 69.308594 L 103.363281 69.207031 L 103.671875 69.003906 L 104.097656 68.898438 L 104.40625 68.796875 L 104.832031 68.695312 L 105.140625 68.589844 L 105.566406 68.386719 L 105.875 68.285156 L 106.300781 68.078125 L 106.609375 67.976562 L 106.917969 67.871094 L 107.34375 67.667969 L 107.652344 67.460938 L 107.960938 67.359375 L 108.386719 67.15625 L 108.695312 66.949219 C 108.902344 66.847656 109.121094 66.742188 109.429688 66.640625 L 109.738281 66.4375 L 110.355469 66.023438 C 110.5625 65.921875 110.886719 65.820312 111.089844 65.601562 L 111.707031 65.1875 L 112.015625 64.984375 C 112.121094 64.882812 112.222656 64.777344 112.324219 64.777344 L 112.632812 64.472656 L 112.941406 64.265625 C 113.148438 64.164062 113.371094 63.957031 113.574219 63.738281 L 113.882812 63.53125 L 114.191406 63.328125 L 114.5 63.019531 L 114.808594 62.8125 L 115.117188 62.507812 L 115.425781 62.199219 L 115.734375 61.992188 L 116.351562 61.375 C 122.554688 55.1875 125.59375 47.007812 125.59375 38.925781 C 125.59375 30.742188 122.554688 22.5625 116.351562 16.371094 C 110.046875 10.183594 101.953125 7.03125 93.75 7.03125 C 85.550781 7.03125 77.527344 10.023438 71.328125 16.210938 L 70.8125 16.726562 L 70.503906 17.03125 L 70.195312 17.339844 L 69.992188 17.648438 L 69.683594 17.957031 L 69.476562 18.265625 L 69.167969 18.574219 L 68.960938 18.878906 C 68.859375 18.984375 68.757812 19.085938 68.757812 19.1875 C 68.652344 19.289062 68.550781 19.394531 68.449219 19.496094 L 68.035156 20.113281 L 67.832031 20.421875 L 67.523438 20.726562 L 67.316406 21.035156 L 67.109375 21.460938 C 67.109375 21.5625 67.007812 21.667969 66.90625 21.769531 L 66.492188 22.386719 L 66.289062 22.808594 L 66.183594 23.117188 L 65.980469 23.425781 L 65.773438 23.734375 C 65.671875 23.835938 65.671875 24.042969 65.566406 24.160156 L 65.464844 24.46875 L 65.257812 24.773438 C 65.15625 24.878906 65.15625 25.082031 65.054688 25.199219 L 64.949219 25.507812 L 64.746094 25.816406 L 64.640625 26.242188 L 64.539062 26.550781 L 64.332031 26.976562 L 64.230469 27.28125 L 64.128906 27.707031 L 63.921875 28.015625 L 63.820312 28.441406 L 63.714844 28.75 L 63.613281 29.175781 L 63.511719 29.484375 L 63.40625 29.90625 L 63.304688 30.214844 L 63.203125 30.640625 L 63.097656 30.949219 L 62.996094 31.375 L 62.894531 31.683594 L 62.894531 32.105469 L 62.789062 32.53125 C 62.789062 32.636719 62.6875 32.738281 62.6875 32.839844 L 62.6875 33.265625 L 62.585938 33.574219 L 62.480469 34 L 62.480469 34.425781 L 62.378906 34.730469 L 62.378906 35.464844 L 62.277344 35.890625 L 62.277344 37.050781 L 62.171875 37.472656 L 62.171875 39.761719 L 62.277344 39.96875 L 62.277344 41.40625 C 62.480469 43.074219 62.804688 44.863281 63.214844 46.550781 L 79.820312 29.878906 C 80.878906 28.941406 82.554688 28.941406 83.613281 29.878906 C 84.671875 30.933594 84.671875 32.605469 83.613281 33.660156 L 65.007812 52.183594 C 65.742188 53.855469 66.683594 55.539062 67.84375 57.109375 L 86.773438 38.132812 C 88.976562 35.933594 92.546875 35.933594 94.648438 38.132812 C 96.851562 40.332031 96.851562 43.898438 94.648438 45.996094 Z M 76.046875 75.792969 L 76.148438 75.894531 Z M 76.046875 75.792969 " fill-opacity="1" fill-rule="nonzero"/></g></svg>